<mxfile host="www.draw.io" modified="2019-11-29T20:30:02.939Z" agent="Mozilla/5.0 (Windows NT 10.0; Win64; x64) AppleWebKit/537.36 (KHTML, like Gecko) Chrome/78.0.3904.108 Safari/537.36" etag="gffiYyQ1dBIenBm8Bix5" version="12.3.3" type="github" pages="1">
  <diagram id="tm_EkmXWtd1kOCvAWD0z" name="Page-1">
    <mxGraphModel dx="1038" dy="548" grid="1" gridSize="10" guides="1" tooltips="1" connect="1" arrows="1" fold="1" page="1" pageScale="1" pageWidth="850" pageHeight="1100" math="0" shadow="0">
      <root>
        <mxCell id="0"/>
        <mxCell id="1" parent="0"/>
        <mxCell id="AuPnZM4n1kBqIeSCu4d0-9" value="Location_services" style="swimlane;fontStyle=0;childLayout=stackLayout;horizontal=1;startSize=26;fillColor=none;horizontalStack=0;resizeParent=1;resizeParentMax=0;resizeLast=0;collapsible=1;marginBottom=0;" parent="1" vertex="1">
          <mxGeometry x="50" y="138" width="140" height="52" as="geometry"/>
        </mxCell>
        <mxCell id="AuPnZM4n1kBqIeSCu4d0-14" value="User" style="swimlane;fontStyle=0;childLayout=stackLayout;horizontal=1;startSize=26;fillColor=none;horizontalStack=0;resizeParent=1;resizeParentMax=0;resizeLast=0;collapsible=1;marginBottom=0;" parent="1" vertex="1">
          <mxGeometry x="50" y="50" width="140" height="52" as="geometry"/>
        </mxCell>
        <mxCell id="AuPnZM4n1kBqIeSCu4d0-15" value="Fuel_type" style="swimlane;fontStyle=0;childLayout=stackLayout;horizontal=1;startSize=26;fillColor=none;horizontalStack=0;resizeParent=1;resizeParentMax=0;resizeLast=0;collapsible=1;marginBottom=0;" parent="1" vertex="1">
          <mxGeometry x="310" y="140" width="140" height="52" as="geometry"/>
        </mxCell>
        <mxCell id="AuPnZM4n1kBqIeSCu4d0-16" value="Access_Database" style="swimlane;fontStyle=0;childLayout=stackLayout;horizontal=1;startSize=26;fillColor=none;horizontalStack=0;resizeParent=1;resizeParentMax=0;resizeLast=0;collapsible=1;marginBottom=0;" parent="1" vertex="1">
          <mxGeometry x="310" y="242" width="140" height="52" as="geometry"/>
        </mxCell>
        <mxCell id="AuPnZM4n1kBqIeSCu4d0-17" value="Maps_API" style="swimlane;fontStyle=0;childLayout=stackLayout;horizontal=1;startSize=26;fillColor=none;horizontalStack=0;resizeParent=1;resizeParentMax=0;resizeLast=0;collapsible=1;marginBottom=0;" parent="1" vertex="1">
          <mxGeometry x="50" y="242" width="140" height="52" as="geometry"/>
        </mxCell>
        <mxCell id="AuPnZM4n1kBqIeSCu4d0-18" value="" style="endArrow=none;html=1;exitX=0.5;exitY=0;exitDx=0;exitDy=0;" parent="1" source="AuPnZM4n1kBqIeSCu4d0-9" edge="1">
          <mxGeometry width="50" height="50" relative="1" as="geometry">
            <mxPoint x="80" y="152" as="sourcePoint"/>
            <mxPoint x="120" y="102" as="targetPoint"/>
          </mxGeometry>
        </mxCell>
        <mxCell id="AuPnZM4n1kBqIeSCu4d0-19" value="" style="endArrow=none;html=1;exitX=0.5;exitY=0;exitDx=0;exitDy=0;" parent="1" source="AuPnZM4n1kBqIeSCu4d0-17" edge="1">
          <mxGeometry width="50" height="50" relative="1" as="geometry">
            <mxPoint x="70" y="242" as="sourcePoint"/>
            <mxPoint x="120" y="192" as="targetPoint"/>
          </mxGeometry>
        </mxCell>
        <mxCell id="AuPnZM4n1kBqIeSCu4d0-20" value="" style="endArrow=none;html=1;entryX=0.5;entryY=0;entryDx=0;entryDy=0;" parent="1" target="AuPnZM4n1kBqIeSCu4d0-15" edge="1">
          <mxGeometry width="50" height="50" relative="1" as="geometry">
            <mxPoint x="190" y="80" as="sourcePoint"/>
            <mxPoint x="360" y="80" as="targetPoint"/>
            <Array as="points">
              <mxPoint x="380" y="80"/>
            </Array>
          </mxGeometry>
        </mxCell>
        <mxCell id="AuPnZM4n1kBqIeSCu4d0-21" value="" style="endArrow=none;html=1;entryX=0;entryY=0.5;entryDx=0;entryDy=0;" parent="1" target="AuPnZM4n1kBqIeSCu4d0-15" edge="1">
          <mxGeometry width="50" height="50" relative="1" as="geometry">
            <mxPoint x="190" y="166" as="sourcePoint"/>
            <mxPoint x="240" y="120" as="targetPoint"/>
          </mxGeometry>
        </mxCell>
        <mxCell id="AuPnZM4n1kBqIeSCu4d0-25" value="" style="endArrow=none;html=1;entryX=0.5;entryY=1;entryDx=0;entryDy=0;" parent="1" target="AuPnZM4n1kBqIeSCu4d0-15" edge="1">
          <mxGeometry width="50" height="50" relative="1" as="geometry">
            <mxPoint x="380" y="240" as="sourcePoint"/>
            <mxPoint x="100" y="320" as="targetPoint"/>
          </mxGeometry>
        </mxCell>
        <mxCell id="AuPnZM4n1kBqIeSCu4d0-26" value="Domain Diagram" style="text;html=1;align=center;verticalAlign=middle;resizable=0;points=[];;autosize=1;" parent="1" vertex="1">
          <mxGeometry x="160" y="19" width="110" height="20" as="geometry"/>
        </mxCell>
        <mxCell id="AuPnZM4n1kBqIeSCu4d0-27" value="Activity" style="text;html=1;align=center;verticalAlign=middle;resizable=0;points=[];;autosize=1;" parent="1" vertex="1">
          <mxGeometry x="60" y="350" width="50" height="20" as="geometry"/>
        </mxCell>
        <mxCell id="AuPnZM4n1kBqIeSCu4d0-28" value="" style="ellipse;html=1;shape=startState;fillColor=#000000;strokeColor=#ff0000;" parent="1" vertex="1">
          <mxGeometry x="70" y="390" width="30" height="30" as="geometry"/>
        </mxCell>
        <mxCell id="AuPnZM4n1kBqIeSCu4d0-29" value="" style="edgeStyle=orthogonalEdgeStyle;html=1;verticalAlign=bottom;endArrow=open;endSize=8;strokeColor=#ff0000;" parent="1" source="AuPnZM4n1kBqIeSCu4d0-28" edge="1">
          <mxGeometry relative="1" as="geometry">
            <mxPoint x="85" y="450" as="targetPoint"/>
          </mxGeometry>
        </mxCell>
        <mxCell id="AuPnZM4n1kBqIeSCu4d0-30" value="Get User Location" style="rounded=1;whiteSpace=wrap;html=1;" parent="1" vertex="1">
          <mxGeometry x="25" y="450" width="120" height="60" as="geometry"/>
        </mxCell>
        <mxCell id="AuPnZM4n1kBqIeSCu4d0-31" value="Select Fuel Type" style="rounded=1;whiteSpace=wrap;html=1;" parent="1" vertex="1">
          <mxGeometry x="25" y="550" width="120" height="60" as="geometry"/>
        </mxCell>
        <mxCell id="AuPnZM4n1kBqIeSCu4d0-33" value="Display Station Details" style="rounded=1;whiteSpace=wrap;html=1;" parent="1" vertex="1">
          <mxGeometry x="25" y="750" width="120" height="60" as="geometry"/>
        </mxCell>
        <mxCell id="AuPnZM4n1kBqIeSCu4d0-34" value="Choose Station" style="rounded=1;whiteSpace=wrap;html=1;" parent="1" vertex="1">
          <mxGeometry x="25" y="650" width="120" height="60" as="geometry"/>
        </mxCell>
        <mxCell id="AuPnZM4n1kBqIeSCu4d0-35" value="" style="ellipse;html=1;shape=endState;fillColor=#000000;strokeColor=#ff0000;" parent="1" vertex="1">
          <mxGeometry x="70" y="840" width="30" height="30" as="geometry"/>
        </mxCell>
        <mxCell id="AuPnZM4n1kBqIeSCu4d0-37" value="" style="edgeStyle=orthogonalEdgeStyle;html=1;verticalAlign=bottom;endArrow=open;endSize=8;strokeColor=#ff0000;entryX=0.5;entryY=0;entryDx=0;entryDy=0;exitX=0.5;exitY=1;exitDx=0;exitDy=0;" parent="1" source="AuPnZM4n1kBqIeSCu4d0-34" target="AuPnZM4n1kBqIeSCu4d0-33" edge="1">
          <mxGeometry relative="1" as="geometry">
            <mxPoint x="84" y="740" as="targetPoint"/>
            <mxPoint x="84" y="710" as="sourcePoint"/>
          </mxGeometry>
        </mxCell>
        <mxCell id="AuPnZM4n1kBqIeSCu4d0-38" value="" style="edgeStyle=orthogonalEdgeStyle;html=1;verticalAlign=bottom;endArrow=open;endSize=8;strokeColor=#ff0000;entryX=0.5;entryY=0;entryDx=0;entryDy=0;exitX=0.5;exitY=1;exitDx=0;exitDy=0;" parent="1" source="AuPnZM4n1kBqIeSCu4d0-33" target="AuPnZM4n1kBqIeSCu4d0-35" edge="1">
          <mxGeometry relative="1" as="geometry">
            <mxPoint x="84" y="850" as="targetPoint"/>
            <mxPoint x="84" y="820" as="sourcePoint"/>
          </mxGeometry>
        </mxCell>
        <mxCell id="AuPnZM4n1kBqIeSCu4d0-39" value="" style="edgeStyle=orthogonalEdgeStyle;html=1;verticalAlign=bottom;endArrow=open;endSize=8;strokeColor=#ff0000;entryX=0.5;entryY=0;entryDx=0;entryDy=0;" parent="1" target="AuPnZM4n1kBqIeSCu4d0-31" edge="1">
          <mxGeometry relative="1" as="geometry">
            <mxPoint x="85" y="540" as="targetPoint"/>
            <mxPoint x="85" y="510" as="sourcePoint"/>
          </mxGeometry>
        </mxCell>
        <mxCell id="AuPnZM4n1kBqIeSCu4d0-40" value="" style="edgeStyle=orthogonalEdgeStyle;html=1;verticalAlign=bottom;endArrow=open;endSize=8;strokeColor=#ff0000;entryX=0.5;entryY=0;entryDx=0;entryDy=0;" parent="1" target="AuPnZM4n1kBqIeSCu4d0-34" edge="1">
          <mxGeometry relative="1" as="geometry">
            <mxPoint x="85" y="640" as="targetPoint"/>
            <mxPoint x="85" y="610" as="sourcePoint"/>
          </mxGeometry>
        </mxCell>
        <mxCell id="AuPnZM4n1kBqIeSCu4d0-42" value="Use case" style="text;html=1;align=center;verticalAlign=middle;resizable=0;points=[];;autosize=1;" parent="1" vertex="1">
          <mxGeometry x="500" y="350" width="70" height="20" as="geometry"/>
        </mxCell>
        <mxCell id="AuPnZM4n1kBqIeSCu4d0-43" value="User" style="shape=umlActor;verticalLabelPosition=bottom;labelBackgroundColor=#ffffff;verticalAlign=top;html=1;" parent="1" vertex="1">
          <mxGeometry x="350" y="570" width="30" height="60" as="geometry"/>
        </mxCell>
        <mxCell id="AuPnZM4n1kBqIeSCu4d0-46" value="Get location" style="ellipse;whiteSpace=wrap;html=1;" parent="1" vertex="1">
          <mxGeometry x="500" y="413" width="140" height="70" as="geometry"/>
        </mxCell>
        <mxCell id="AuPnZM4n1kBqIeSCu4d0-48" value="Select Fuel Type" style="ellipse;whiteSpace=wrap;html=1;" parent="1" vertex="1">
          <mxGeometry x="500" y="500" width="140" height="70" as="geometry"/>
        </mxCell>
        <mxCell id="AuPnZM4n1kBqIeSCu4d0-49" value="Select Station" style="ellipse;whiteSpace=wrap;html=1;" parent="1" vertex="1">
          <mxGeometry x="500" y="690" width="140" height="70" as="geometry"/>
        </mxCell>
        <mxCell id="AuPnZM4n1kBqIeSCu4d0-50" value="Display details of station" style="ellipse;whiteSpace=wrap;html=1;" parent="1" vertex="1">
          <mxGeometry x="500" y="780" width="140" height="70" as="geometry"/>
        </mxCell>
        <mxCell id="AuPnZM4n1kBqIeSCu4d0-51" value="Display all Station based on Average" style="ellipse;whiteSpace=wrap;html=1;" parent="1" vertex="1">
          <mxGeometry x="500" y="600" width="140" height="70" as="geometry"/>
        </mxCell>
        <mxCell id="AuPnZM4n1kBqIeSCu4d0-53" value="" style="endArrow=none;html=1;" parent="1" edge="1">
          <mxGeometry width="50" height="50" relative="1" as="geometry">
            <mxPoint x="470" y="871.5999755859375" as="sourcePoint"/>
            <mxPoint x="470" y="400" as="targetPoint"/>
          </mxGeometry>
        </mxCell>
        <mxCell id="AuPnZM4n1kBqIeSCu4d0-54" value="" style="endArrow=none;html=1;" parent="1" edge="1">
          <mxGeometry width="50" height="50" relative="1" as="geometry">
            <mxPoint x="680" y="870.5999755859375" as="sourcePoint"/>
            <mxPoint x="680" y="399" as="targetPoint"/>
          </mxGeometry>
        </mxCell>
        <mxCell id="AuPnZM4n1kBqIeSCu4d0-55" value="" style="endArrow=none;html=1;" parent="1" edge="1">
          <mxGeometry width="50" height="50" relative="1" as="geometry">
            <mxPoint x="470" y="870" as="sourcePoint"/>
            <mxPoint x="680" y="870" as="targetPoint"/>
          </mxGeometry>
        </mxCell>
        <mxCell id="AuPnZM4n1kBqIeSCu4d0-56" value="" style="endArrow=none;html=1;" parent="1" edge="1">
          <mxGeometry width="50" height="50" relative="1" as="geometry">
            <mxPoint x="470" y="400" as="sourcePoint"/>
            <mxPoint x="680" y="400" as="targetPoint"/>
          </mxGeometry>
        </mxCell>
        <mxCell id="AuPnZM4n1kBqIeSCu4d0-57" value="" style="endArrow=none;html=1;entryX=0;entryY=0.5;entryDx=0;entryDy=0;exitX=0.5;exitY=0.5;exitDx=0;exitDy=0;exitPerimeter=0;" parent="1" source="AuPnZM4n1kBqIeSCu4d0-43" target="AuPnZM4n1kBqIeSCu4d0-46" edge="1">
          <mxGeometry width="50" height="50" relative="1" as="geometry">
            <mxPoint x="395" y="560" as="sourcePoint"/>
            <mxPoint x="445" y="510" as="targetPoint"/>
          </mxGeometry>
        </mxCell>
        <mxCell id="AuPnZM4n1kBqIeSCu4d0-58" value="" style="endArrow=none;html=1;entryX=0;entryY=0.5;entryDx=0;entryDy=0;exitX=0.5;exitY=0.5;exitDx=0;exitDy=0;exitPerimeter=0;" parent="1" source="AuPnZM4n1kBqIeSCu4d0-43" target="AuPnZM4n1kBqIeSCu4d0-48" edge="1">
          <mxGeometry width="50" height="50" relative="1" as="geometry">
            <mxPoint x="405" y="570" as="sourcePoint"/>
            <mxPoint x="510" y="458" as="targetPoint"/>
          </mxGeometry>
        </mxCell>
        <mxCell id="AuPnZM4n1kBqIeSCu4d0-59" value="" style="endArrow=none;html=1;entryX=0;entryY=0.5;entryDx=0;entryDy=0;exitX=0.5;exitY=0.5;exitDx=0;exitDy=0;exitPerimeter=0;" parent="1" source="AuPnZM4n1kBqIeSCu4d0-43" target="AuPnZM4n1kBqIeSCu4d0-51" edge="1">
          <mxGeometry width="50" height="50" relative="1" as="geometry">
            <mxPoint x="415" y="580" as="sourcePoint"/>
            <mxPoint x="520" y="468" as="targetPoint"/>
          </mxGeometry>
        </mxCell>
        <mxCell id="AuPnZM4n1kBqIeSCu4d0-60" value="" style="endArrow=none;html=1;entryX=0;entryY=0.5;entryDx=0;entryDy=0;exitX=0.5;exitY=0.5;exitDx=0;exitDy=0;exitPerimeter=0;" parent="1" source="AuPnZM4n1kBqIeSCu4d0-43" target="AuPnZM4n1kBqIeSCu4d0-49" edge="1">
          <mxGeometry width="50" height="50" relative="1" as="geometry">
            <mxPoint x="425" y="590" as="sourcePoint"/>
            <mxPoint x="530" y="478" as="targetPoint"/>
          </mxGeometry>
        </mxCell>
        <mxCell id="AuPnZM4n1kBqIeSCu4d0-61" value="" style="endArrow=none;html=1;entryX=0;entryY=0.5;entryDx=0;entryDy=0;exitX=0.5;exitY=0.5;exitDx=0;exitDy=0;exitPerimeter=0;" parent="1" source="AuPnZM4n1kBqIeSCu4d0-43" target="AuPnZM4n1kBqIeSCu4d0-50" edge="1">
          <mxGeometry width="50" height="50" relative="1" as="geometry">
            <mxPoint x="435" y="600" as="sourcePoint"/>
            <mxPoint x="540" y="488" as="targetPoint"/>
          </mxGeometry>
        </mxCell>
        <mxCell id="kjUQHNFYOYEdBJwLmRYR-1" value="compare station" style="text;html=1;align=center;verticalAlign=middle;resizable=0;points=[];;autosize=1;" vertex="1" parent="1">
          <mxGeometry x="217" y="627" width="100" height="20" as="geometry"/>
        </mxCell>
      </root>
    </mxGraphModel>
  </diagram>
</mxfile>
